# AST/ASF file generated using VICON BodyLanguage
# -----------------------------------------------
:version 1.10
:name VICON
:units
  mass 1.0
  length 0.45
  angle deg
:documentation
   .ast/.asf automatically generated from VICON data using
   VICON BodyBuilder and BodyLanguage model FoxedUp or BRILLIANT.MOD
:root
   order TX TY TZ RX RY RZ
   axis XYZ
   position 0 0 0  
   orientation 0 0 0 
:bonedata
  begin
     id 1 
     name lhipjoint
     direction 0.521689 -0.742065 0.420928 
     length 2.47002 
     axis 0 0 0  XYZ
  end
  begin
     id 2 
     name lfemur
     direction 0.34202 -0.939693 0  
     length 7.24654  
     axis 0 0 20  XYZ
    dof rx ry rz
    limits (-160.0 20.0)
           (-70.0 70.0)
           (-60.0 70.0)
  end
  begin
     id 3 
     name ltibia
     direction 0.34202 -0.939693 0   
     length 8.04849   
     axis 0 0 20   XYZ
    dof rx
    limits (-10.0 170.0)
  end
  begin
     id 4 
     name lfoot
     direction 0.0745411 -0.2048 0.975961   
     length 1.72367   
     axis -90 7.62852e-016 20   XYZ
    dof rx rz
    limits (-45.0 90.0)
           (-70.0 20.0)
  end
  begin
     id 5 
     name ltoes
     direction 1.53556e-011 -4.21901e-011 1   
     length 0.87311   
     axis -90 7.62852e-016 20   XYZ
    dof rx
    limits (-90.0 20.0)
  end
  begin
     id 6 
     name rhipjoint
     direction -0.52849 -0.738415 0.418857   
     length 2.48223  
     axis 0 0 0  XYZ 
  end
  begin
     id 7 
     name rfemur
     direction -0.34202 -0.939693 0   
     length 7.15571   
     axis 0 0 -20   XYZ
    dof rx ry rz
    limits (-160.0 20.0)
           (-70.0 70.0)
           (-70.0 60.0)
  end
  begin
     id 8 
     name rtibia
     direction -0.34202 -0.939693 0   
     length 7.81659   
     axis 0 0 -20   XYZ
    dof rx
    limits (-10.0 170.0)
 end
 begin
     id 9 
     name rfoot
     direction -0.0917348 -0.252039 0.963359   
     length 1.84382  
     axis -90 -7.62852e-016 -20   XYZ
    dof rx rz
    limits (-45.0 90.0)
           (-20.0 70.0)
  end
  begin
     id 10 
     name rtoes
     direction -1.53551e-011 -4.21879e-011 1   
     length 0.927771   
     axis -90 -7.62852e-016 -20   XYZ
    dof rx
    limits (-90.0 20.0)
  end
  begin
     id 11 
     name lowerback
     direction 0.00583058 0.999822 0.0179296   
     length 2.1429   
     axis 0 0 0   XYZ
    dof rx ry rz
    limits (-20.0 45.0)
           (-30.0 30.0)
           (-30.0 30.0)
  end
  begin
     id 12 
     name upperback
     direction -0.0137999 0.999752 -0.0175071   
     length 2.14252   
     axis 0 0 0   XYZ
    dof rx ry rz
    limits (-20.0 45.0)
           (-30.0 30.0)
           (-30.0 30.0)
  end
  begin
     id 13 
     name thorax
     direction -0.0158036 0.99955 -0.0254909   
     length 2.1383   
     axis 0 0 0   XYZ
    dof rx ry rz
    limits (-20.0 45.0)
           (-30.0 30.0)
           (-30.0 30.0)
  end
  begin
     id 14 
     name lowerneck
     direction -0.0101179 0.999403 -0.0330262   
     length 1.65808   
     axis 0 0 0   XYZ
    dof rx ry rz
    limits (-20.0 45.0)
           (-30.0 30.0)
           (-30.0 30.0)
  end
  begin
     id 15 
     name upperneck
     direction 0.0497734 0.995978 -0.074501   
     length 1.5897   
     axis 0 0 0   XYZ
    dof rx ry rz
    limits (-20.0 45.0)
           (-30.0 30.0)
           (-30.0 30.0)
  end
  begin
     id 16
     name head
     direction 0.0189524 0.999519 -0.0245438  
     length 1.74024  
     axis 0 0 0   XYZ
    dof rx ry rz
    limits (-20.0 45.0)
           (-30.0 30.0)
           (-30.0 30.0)
  end
  begin
     id 17 
     name lclavicle
     direction 0.945604 0.324422 0.0241537  
     length 3.59089  
     axis 0 0 0   XYZ
    dof ry rz
    limits (-20.0 10.0)
           (0.0 20.0)
  end
  begin
     id 18 
     name lhumerus
     direction 1 -4.48964e-011 -2.63524e-027   
     length 5.2391   
     axis 180 -30 -90   XYZ
    dof rx ry rz
    limits (-60.0 90.0)
           (-90.0 90.0)
           (-90.0 90.0)
  end
  begin
     id 19
     name lradius
     direction 1 -4.48969e-011 3.86978e-028   
     length 3.31467   
     axis 180 -30 -90   XYZ
    dof rx
    limits (-10.0 170.0)
  end
  begin
     id 20
     name lwrist
     direction 1 -4.48963e-011 7.20928e-028   
     length 1.65734   
     axis -5.52449e-016 90 90   XYZ
    dof ry
    limits (-180.0 0.0)
 end
  begin
     id 21 
     name lhand
     direction 1 -4.48964e-011 1.44186e-027   
     length 0.9659   
     axis -9.20027e-016 90 90   XYZ
    dof rx rz
    limits (-90.0 90.0)
           (-45.0 45.0)
  end
  begin
     id 22 
     name lfingers
     direction 1 -4.48965e-011 2.88371e-027   
     length 0.778733   
     axis -1.84005e-015 90 90   XYZ
    dof rx
    limits (0.0 90.0)
  end
  begin
     id 23
     name lthumb
     direction 0.707107 -6.34931e-011 0.707107   
     length 1.11811   
     axis -90 45 2.85299e-015   XYZ
    dof rx rz
    limits (-45.0 45.0)
           (-45.0 45.0)
  end
  begin
     id 24 
     name rclavicle
     direction -0.923762 0.370785 0.0958234   
     length 3.54196  
     axis 0 0 0   XYZ 
    dof ry rz
    limits (-10.0 20.0)
           (-20.0 0.0)
  end
  begin
     id 25 
     name rhumerus
     direction -1 -4.48966e-011 1.18702e-017  
     length 5.30252   
     axis 180 30 90   XYZ
    dof rx ry rz
    limits (-90.0 60.0)
           (-90.0 90.0)
           (-90.0 90.0)
  end
  begin
     id 26 
     name rradius
     direction -1 -4.48966e-011 4.46736e-027   
     length 3.67875   
     axis 180 30 90   XYZ
    dof rx
    limits (-10.0 170.0)
  end
  begin
     id 27 
     name rwrist
     direction -1 -4.48966e-011 7.20928e-028   
     length 1.83937   
     axis -5.52449e-016 -90 -90   XYZ
    dof ry
    limits (-180.0 0.0)
  end
  begin
     id 28
     name rhand
     direction -1 -4.48973e-011 1.44186e-027   
     length 0.594811   
     axis -9.20027e-016 -90 -90   XYZ
    dof rx rz
    limits (-90.0 90.0)
           (-45.0 45.0)
  end
  begin
     id 29
     name rfingers
     direction -1 -4.48963e-011 2.88371e-027   
     length 0.479552   
     axis -1.84005e-015 -90 -90   XYZ
    dof rx
    limits (0.0 90.0)
  end
  begin
     id 30
     name rthumb
     direction -0.707107 -6.34932e-011 0.707107   
     length 0.688544   
     axis -90 -45 -2.85299e-015   XYZ
    dof rx rz
    limits (-45.0 45.0)
           (-45.0 45.0)
  end
:hierarchy
  begin
    root lhipjoint rhipjoint lowerback
    lhipjoint lfemur
    lfemur ltibia
    ltibia lfoot
    lfoot ltoes
    rhipjoint rfemur
    rfemur rtibia
    rtibia rfoot
    rfoot rtoes
    lowerback upperback
    upperback thorax
    thorax lowerneck lclavicle rclavicle
    lowerneck upperneck
    upperneck head
    lclavicle lhumerus
    lhumerus lradius
    lradius lwrist
    lwrist lhand lthumb
    lhand lfingers
    rclavicle rhumerus
    rhumerus rradius
    rradius rwrist
    rwrist rhand rthumb
    rhand rfingers
  end

#!OML:ASF E:\acrobat2\Project_11_07_03\Capture day 1\Session 1\Acrobat.ASF
:FULLY-SPECIFIED
:DEGREES
484
root 11.2356 17.6676 2.21889 149.968 3.40492 0.412986
lowerback 20.0582 0.81543 1.25364
upperback 6.39973 1.14843 -0.861157
thorax -4.2463 0.53113 -1.89375
lowerneck -7.29614 -0.328868 1.19576
upperneck -10.6545 -0.511835 0.306792
head -2.11742 -0.321549 -0.103905
rclavicle 1.54555e-014 0
rhumerus 53.1271 -21.9934 -75.432
rradius 86.7027
rwrist -0.494444
rhand -49.6175 -60.772
rfingers 7.12502
rthumb -22.2219 -89.5146
lclavicle 1.54555e-014 0
lhumerus 54.2977 18.8417 63.6151
lradius 93.9339
lwrist 14.4655
lhand -48.1624 -72.146
lfingers 7.12502
lthumb -20.8244 -43.2435
rfemur -54.3568 13.8859 7.43511
rtibia 8.42847e-014
rfoot -13.2382 -31.2184
rtoes 18.8538
lfemur -70.942 0.283793 -23.812
ltibia 28.3761
lfoot -0.0102241 -5.32355
ltoes -9.56307
485
root 11.2527 17.5096 2.50671 152.531 3.34837 0.612635
lowerback 19.5602 0.778473 1.26849
upperback 6.07537 1.10761 -0.843504
thorax -4.33792 0.510401 -1.86824
lowerneck -7.34111 -0.333119 1.07008
upperneck -10.5208 -0.499861 0.470158
head -2.06477 -0.312941 -0.0319396
rclavicle -2.38542e-014 -1.19271e-015
rhumerus 52.8559 -22.2108 -75.8363
rradius 88.0707
rwrist -0.38871
rhand -49.6275 -61.1669
rfingers 7.12502
rthumb -22.2315 -89.9083
lclavicle -2.38542e-014 -1.19271e-015
lhumerus 53.8988 19.0538 63.7204
lradius 95.6261
lwrist 14.4465
lhand -48.1026 -73.0886
lfingers 7.12502
lthumb -20.767 -44.1798
rfemur -53.717 14.4404 7.03959
rtibia -7.95139e-014
rfoot -12.6693 -30.9051
rtoes 16.5425
lfemur -70.0916 0.488849 -24.2265
ltibia 28.2834
lfoot 1.69121 -7.25378
ltoes -5.38719
486
root 11.2696 17.3579 2.78371 154.958 3.27406 0.773152
lowerback 19.1176 0.74881 1.22152
upperback 5.7781 1.06558 -0.814532
thorax -4.42899 0.489281 -1.79638
lowerneck -7.37381 -0.342151 0.891388
upperneck -10.4097 -0.487086 0.693293
head -2.02153 -0.303168 0.0674222
rclavicle 1.67228e-014 7.95139e-016
rhumerus 52.7054 -22.513 -76.1898
rradius 89.268
rwrist -0.395967
rhand -49.6375 -61.5192
rfingers 7.12502
rthumb -22.2412 -269.741
lclavicle 1.67228e-014 7.95139e-016
lhumerus 53.5857 19.222 63.9725
lradius 97.2023
lwrist 14.2915
lhand -48.0846 -73.9431
lfingers 7.12502
lthumb -20.7497 -45.0324
rfemur -52.9486 14.9466 6.65811
rtibia 3.97569e-014
rfoot -11.8444 -30.3994
rtoes 14.6972
lfemur -69.1503 0.774602 -24.6513
ltibia 28.2003
lfoot 3.52872 -8.83063
ltoes -0.186132
487
root 11.2872 17.2118 3.04945 157.288 3.20442 0.90267
lowerback 18.6812 0.726351 1.15457
upperback 5.4947 1.02897 -0.784144
thorax -4.50686 0.471064 -1.71316
lowerneck -7.35126 -0.36183 0.694653
upperneck -10.4131 -0.485793 0.935083
head -2.02529 -0.299998 0.175902
rclavicle -1.46852e-014 7.95139e-015
rhumerus 52.6499 -22.8901 -76.5048
rradius 90.3115
rwrist -0.472805
rhand -49.6541 -61.829
rfingers 7.12502
rthumb -22.2571 -269.433
lclavicle -1.46852e-014 7.95139e-015
lhumerus 53.3523 19.3554 64.3237
lradius 98.6595
lwrist 14.0389
lhand -48.1024 -74.6855
lfingers 7.12502
lthumb -20.7668 -45.7768
rfemur -52.076 15.443 6.30683
rtibia -1.08139e-013
rfoot -11.2547 -29.9694
rtoes 14.1813
lfemur -68.1509 1.11787 -25.0676
ltibia 28.1524
lfoot 5.11513 -9.63953
ltoes 5.04653
488
root 11.3059 17.07 3.30375 159.527 3.14097 1.02005
lowerback 18.2531 0.701195 1.10316
upperback 5.22987 0.99136 -0.758119
thorax -4.56728 0.45273 -1.64347
lowerneck -7.28589 -0.391012 0.518138
upperneck -10.6308 -0.498299 1.15863
head -2.10695 -0.306246 0.276402
rclavicle -2.03754e-015 -2.38542e-015
rhumerus 52.7025 -23.3462 -76.7904
rradius 91.217
rwrist -0.623285
rhand -49.6869 -62.1248
rfingers 7.12502
rthumb -22.2886 -269.141
lclavicle -2.03754e-015 -2.38542e-015
lhumerus 53.2023 19.4816 64.7347
lradius 100.015
lwrist 13.7436
lhand -48.115 -75.2663
lfingers 7.12502
lthumb -20.7789 -46.3589
rfemur -51.0835 15.9621 6.01077
rtibia -6.36111e-014
rfoot -11.2456 -29.8058
rtoes 14.9692
lfemur -67.076 1.48979 -25.458
ltibia 28.1534
lfoot 5.9387 -9.80584
ltoes 7.73354
489
root 11.3255 16.9315 3.54559 161.672 3.07583 1.14974
lowerback 17.842 0.664791 1.09592
upperback 4.99482 0.947035 -0.731758
thorax -4.60284 0.431468 -1.5974
lowerneck -7.25087 -0.433533 0.345472
upperneck -11.0978 -0.527377 1.38317
head -2.26641 -0.323389 0.378321
rclavicle -1.49873e-014 1.35174e-014
rhumerus 52.864 -23.8711 -77.0466
rradius 92.0088
rwrist -0.84602
rhand -49.7451 -62.4098
rfingers 7.12502
rthumb -22.3444 -268.862
lclavicle -1.49873e-014 1.35174e-014
lhumerus 53.1238 19.6371 65.1644
lradius 101.295
lwrist 13.4775
lhand -48.0938 -75.6872
lfingers 7.12502
lthumb -20.7585 -46.7775
rfemur -49.9502 16.5157 5.79939
rtibia -4.45278e-014
rfoot -11.9873 -29.8138
rtoes 17.1634
lfemur -65.8972 1.86644 -25.7978
ltibia 28.2019
lfoot 5.90143 -9.45094
ltoes 7.73419
490
root 11.3457 16.7971 3.77416 163.731 3.00487 1.28685
lowerback 17.4442 0.617736 1.12568
upperback 4.78191 0.895098 -0.707166
thorax -4.62025 0.406672 -1.57298
lowerneck -7.28618 -0.530061 0.18382
upperneck -11.7469 -0.542859 1.64881
head -2.47646 -0.285603 0.491233
rclavicle -2.07481e-015 5.56597e-015
rhumerus 53.0776 -24.3958 -77.3061
rradius 92.7399
rwrist -1.08569
rhand -49.8202 -62.671
rfingers 7.12502
rthumb -22.4166 -268.61
lclavicle -2.07481e-015 5.56597e-015
lhumerus 53.0874 19.8359 65.5674
lradius 102.505
lwrist 13.2798
lhand -48.0235 -75.9943
lfingers 7.12502
lthumb -20.691 -47.0773
rfemur -48.6916 17.1056 5.66785
rtibia -2.22639e-014
rfoot -13.2115 -29.8766
rtoes 20.1066
lfemur -64.6319 2.24114 -26.086
ltibia 28.3232
lfoot 5.05506 -8.82805
ltoes 5.8997
491
root 11.3667 16.6683 3.98881 165.728 2.95186 1.43103
lowerback 17.0309 0.568384 1.1962
upperback 4.57772 0.84594 -0.684537
thorax -4.61826 0.383003 -1.57441
lowerneck -7.34048 -0.587673 0.0486323
upperneck -12.6446 -0.574474 1.89609
head -2.77037 -0.301998 0.598822
rclavicle 1.94064e-014 -1.15295e-014
rhumerus 53.3032 -24.8621 -77.5912
rradius 93.4437
rwrist -1.31892
rhand -49.8982 -62.9183
rfingers 7.12502
rthumb -22.4914 -268.372
lclavicle 1.94064e-014 -1.15295e-014
lhumerus 53.0752 20.0782 65.91
lradius 103.63
lwrist 13.1587
lhand -47.907 -76.2569
lfingers 7.12502
lthumb -20.579 -47.3277
rfemur -47.3492 17.7456 5.61442
rtibia -1.59028e-014
rfoot -14.5765 -29.9088
rtoes 22.9679
lfemur -63.3049 2.62747 -26.3127
ltibia 28.5045
lfoot 3.63661 -8.16497
ltoes 3.14481
492
root 11.3882 16.552 4.18404 167.693 2.9391 1.57489
lowerback 16.5587 0.529018 1.29947
upperback 4.37181 0.812778 -0.663555
thorax -4.58444 0.366698 -1.59884
lowerneck -7.4833 -0.628316 -0.0911066
upperneck -13.6217 -0.577947 2.18138
head -3.08166 -0.305794 0.721763
rclavicle 1.3418e-015 7.95139e-016
rhumerus 53.5345 -25.248 -77.9031
rradius 94.126
rwrist -1.54652
rhand -49.9687 -63.1762
rfingers 7.12502
rthumb -22.5591 -268.122
lclavicle 1.3418e-015 7.95139e-016
lhumerus 53.1007 20.3485 66.1929
lradius 104.65
lwrist 13.0915
lhand -47.7762 -76.5284
lfingers 7.12502
lthumb -20.4533 -47.5857
rfemur -45.9796 18.4485 5.62049
rtibia -1.59028e-014
rfoot -15.8517 -29.898
rtoes 25.3719
lfemur -61.9626 3.02959 -26.481
ltibia 28.7449
lfoot 1.91866 -7.61895
ltoes 0.602091
493
root 11.4101 16.4496 4.36693 169.656 2.97435 1.70329
lowerback 15.9961 0.507583 1.40939
upperback 4.15422 0.800726 -0.646624
thorax -4.51224 0.360427 -1.63446
lowerneck -7.62009 -0.684599 -0.175042
upperneck -14.7388 -0.597576 2.44099
head -3.44954 -0.319047 0.830653
rclavicle 1.69464e-014 -1.74931e-014
rhumerus 53.7888 -25.4963 -78.2665
rradius 94.7562
rwrist -1.70885
rhand -50.0172 -63.4517
rfingers 7.12502
rthumb -22.6056 -267.852
lclavicle 1.69464e-014 -1.74931e-014
lhumerus 53.1873 20.623 66.4297
lradius 105.538
lwrist 13.0453
lhand -47.6575 -76.814
lfingers 7.12502
lthumb -20.3393 -47.859
rfemur -44.631 19.2155 5.6539
rtibia 1.24042e-013
rfoot -16.8262 -29.9665
rtoes 27.1639
lfemur -60.622 3.43874 -26.6077
ltibia 29.0242
lfoot 0.020231 -7.24876
ltoes -1.42235
494
root 11.4327 16.3641 4.53992 171.646 3.04881 1.83719
lowerback 15.3052 0.503459 1.5417
upperback 3.92629 0.811041 -0.626803
thorax -4.37903 0.365063 -1.68216
lowerneck -7.75006 -0.750001 -0.215166
upperneck -15.9513 -0.624737 2.68096
head -3.86153 -0.337386 0.929372
rclavicle -2.48481e-015 -1.35174e-014
rhumerus 54.1061 -25.7503 -78.5783
rradius 95.2694
rwrist -1.94338
rhand -50.0302 -63.7594
rfingers 7.12502
rthumb -22.6181 -267.546
lclavicle -2.48481e-015 -1.35174e-014
lhumerus 53.368 20.8653 66.6472
lradius 106.27
lwrist 12.989
lhand -47.5738 -77.0823
lfingers 7.12502
lthumb -20.2588 -48.1188
rfemur -43.3252 20.0295 5.72069
rtibia 1.59028e-014
rfoot -17.5698 -30.1714
rtoes 28.155
lfemur -59.3105 3.83417 -26.6827
ltibia 29.3399
lfoot -1.93928 -7.02205
ltoes -3.26576
495
root 11.4557 16.2979 4.7054 173.666 3.13706 1.9794
lowerback 14.4873 0.513384 1.69378
upperback 3.69365 0.838629 -0.6019
thorax -4.17887 0.378548 -1.73666
lowerneck -7.86099 -0.818863 -0.198679
upperneck -17.2633 -0.657901 2.85259
head -4.32466 -0.359778 0.999639
rclavicle 1.49089e-015 2.78299e-015
rhumerus 54.5163 -26.0395 -78.8265
rradius 95.6323
rwrist -2.23429
rhand -50.0168 -64.1213
rfingers 7.12502
rthumb -22.6052 -267.182
lclavicle 1.49089e-015 2.78299e-015
lhumerus 53.6479 21.0746 66.8603
lradius 106.851
lwrist 12.9287
lhand -47.5402 -77.3005
lfingers 7.12502
lthumb -20.2265 -48.3336
rfemur -44.3974 20.8681 4.96015
rtibia 3.92405
rfoot -20.1228 -29.2909
rtoes 28.7521
lfemur -58.0063 4.19213 -26.7112
ltibia 29.6621
lfoot -3.80649 -6.92215
ltoes -5.09086
496
root 11.479 16.2527 4.86522 175.671 3.22126 2.1154
lowerback 13.6018 0.532111 1.84627
upperback 3.44659 0.874218 -0.578733
thorax -3.95403 0.39629 -1.79314
lowerneck -7.83323 -0.87666 -0.102247
upperneck -18.6584 -0.682108 2.94585
head -4.85944 -0.381439 1.03394
rclavicle -3.62782e-015 -2.46493e-014
rhumerus 54.965 -26.3586 -78.9953
rradius 95.8498
rwrist -2.56407
rhand -49.979 -64.5506
rfingers 7.12502
rthumb -22.5689 -266.749
lclavicle -3.62782e-015 -2.46493e-014
lhumerus 53.9915 21.2407 67.0563
lradius 107.283
lwrist 12.8675
lhand -47.5409 -77.4741
lfingers 7.12502
lthumb -20.2272 -48.5073
rfemur -44.1973 21.7409 4.63626
rtibia 5.74822
rfoot -21.8217 -28.9003
rtoes 29.0794
lfemur -56.6591 4.5073 -26.7043
ltibia 29.9993
lfoot -5.46842 -6.96669
ltoes -6.73075
497
root 11.5024 16.2285 5.02005 177.599 3.29536 2.25708
lowerback 12.7242 0.553446 2.0125
upperback 3.19331 0.912613 -0.556449
thorax -3.73669 0.415374 -1.85824
lowerneck -7.30561 -0.919494 -0.00900534
upperneck -20.7972 -0.652549 3.09562
head -5.07363 -0.401836 0.980962
rclavicle 1.22253e-014 -6.75868e-015
rhumerus 55.4065 -26.7037 -79.0651
rradius 95.9294
rwrist -2.92045
rhand -49.9312 -65.0365
rfingers 7.12502
rthumb -22.5231 -266.257
lclavicle 1.22253e-014 -6.75868e-015
lhumerus 54.389 21.3645 67.235
lradius 107.572
lwrist 12.8129
lhand -47.551 -77.6262
lfingers 7.12502
lthumb -20.2369 -48.6604
rfemur -43.5096 22.6382 4.50858
rtibia 6.99489
rfoot -23.4022 -28.4117
rtoes 29.2343
lfemur -55.1867 4.79435 -26.6376
ltibia 30.3635
lfoot -6.72939 -7.1837
ltoes -7.69523
